<?xml version="1.0" encoding="UTF-8" standalone="no"?>
<!-- Created with Inkscape (http://www.inkscape.org/) -->

<svg
   xmlns:dc="http://purl.org/dc/elements/1.1/"
   xmlns:cc="http://creativecommons.org/ns#"
   xmlns:rdf="http://www.w3.org/1999/02/22-rdf-syntax-ns#"
   xmlns:svg="http://www.w3.org/2000/svg"
   xmlns="http://www.w3.org/2000/svg"
   xmlns:sodipodi="http://sodipodi.sourceforge.net/DTD/sodipodi-0.dtd"
   xmlns:inkscape="http://www.inkscape.org/namespaces/inkscape"
   width="122.97585mm"
   height="13.641916mm"
   viewBox="0 0 122.97585 13.641916"
   version="1.1"
   id="svg4959"
   inkscape:version="0.92.2 5c3e80d, 2017-08-06"
   sodipodi:docname="unprofessional.svg"
   inkscape:export-filename="/home/daniel/Projects/unprofession.al/avatar.png"
   inkscape:export-xdpi="286.56717"
   inkscape:export-ydpi="286.56717">
  <defs
     id="defs4953" />
  <sodipodi:namedview
     id="base"
     pagecolor="#ffffff"
     bordercolor="#666666"
     borderopacity="1.0"
     inkscape:pageopacity="0.0"
     inkscape:pageshadow="2"
     inkscape:zoom="1.4462"
     inkscape:cx="237.14286"
     inkscape:cy="-8.0556177"
     inkscape:document-units="mm"
     inkscape:current-layer="text4749"
     showgrid="false"
     fit-margin-top="0"
     fit-margin-left="0"
     fit-margin-right="0"
     fit-margin-bottom="0"
     inkscape:window-width="1716"
     inkscape:window-height="1400"
     inkscape:window-x="1720"
     inkscape:window-y="18"
     inkscape:window-maximized="0"
     units="px" />
  <metadata
     id="metadata4956">
    <rdf:RDF>
      <cc:Work
         rdf:about="">
        <dc:format>image/svg+xml</dc:format>
        <dc:type
           rdf:resource="http://purl.org/dc/dcmitype/StillImage" />
        <dc:title></dc:title>
      </cc:Work>
    </rdf:RDF>
  </metadata>
  <g
     inkscape:label="Layer 1"
     inkscape:groupmode="layer"
     id="layer1"
     transform="translate(-48.881122,-143.52428)">
    <g
       aria-label="Unprofessional"
       style="font-style:normal;font-variant:normal;font-weight:900;font-stretch:normal;font-size:10.58333302px;line-height:6.61458349px;font-family:Klute;-inkscape-font-specification:'Klute, Heavy';font-variant-ligatures:normal;font-variant-caps:normal;font-variant-numeric:normal;font-feature-settings:normal;text-align:start;letter-spacing:0px;word-spacing:0px;writing-mode:lr-tb;text-anchor:start;fill:#000000;fill-opacity:1;stroke:none;stroke-width:0.26458332px;stroke-linecap:butt;stroke-linejoin:miter;stroke-opacity:1"
       id="text4749">
      <path
         d="m 56.405871,144.90011 -3.026833,8.29733 -1.778,-2.2225 2.201333,-6.06425 -2.074333,-1.38641 -2.846916,7.83166 2.603499,3.29142 1.905,-1.28058 h 4.572 l -1.42875,-1.72509 2.455334,-6.74158 z"
         style="font-style:normal;font-variant:normal;font-weight:900;font-stretch:normal;font-size:10.58333302px;font-family:Klute;-inkscape-font-specification:'Klute, Heavy';font-variant-ligatures:normal;font-variant-caps:normal;font-variant-numeric:normal;font-feature-settings:normal;text-align:start;writing-mode:lr-tb;text-anchor:start;fill:#ffffff;stroke-width:0.26458332px"
         id="path9511" />
      <path
         d="m 65.39509,146.46644 -2.4765,3.19617 0.6985,-1.93675 h -4.6355 l 1.42875,1.72508 -1.42875,3.91584 h 4.6355 l -1.418166,-1.72509 0.666749,-1.83091 h 2.561167 l -1.280583,3.51366 2.06375,1.37584 1.788583,-4.8895 z"
         style="font-style:normal;font-variant:normal;font-weight:900;font-stretch:normal;font-size:10.58333302px;font-family:Klute;-inkscape-font-specification:'Klute, Heavy';font-variant-ligatures:normal;font-variant-caps:normal;font-variant-numeric:normal;font-feature-settings:normal;text-align:start;writing-mode:lr-tb;text-anchor:start;fill:#ffffff;stroke-width:0.26458332px"
         id="path9513" />
      <path
         d="m 75.810908,146.29711 -2.169583,1.42875 h -4.614333 l 1.42875,1.73567 -2.307167,6.31825 2.074334,1.38641 2.074333,-5.69383 2.54,3.25967 2.76225,-3.54542 z m -3.481916,5.09058 1.30175,-3.57716 1.36525,3.57716 z"
         style="font-style:normal;font-variant:normal;font-weight:900;font-stretch:normal;font-size:10.58333302px;font-family:Klute;-inkscape-font-specification:'Klute, Heavy';font-variant-ligatures:normal;font-variant-caps:normal;font-variant-numeric:normal;font-feature-settings:normal;text-align:start;writing-mode:lr-tb;text-anchor:start;fill:#ffffff;stroke-width:0.26458332px"
         id="path9515" />
      <path
         d="m 85.062892,146.47703 -2.455334,3.14325 0.687917,-1.89442 h -4.6355 l 1.42875,1.73567 -1.42875,3.90525 h 4.6355 l -1.418167,-1.72509 0.656167,-1.83091 h 2.54 l -0.338667,0.92075 2.084917,1.38641 0.836083,-2.30716 z"
         style="font-style:normal;font-variant:normal;font-weight:900;font-stretch:normal;font-size:10.58333302px;font-family:Klute;-inkscape-font-specification:'Klute, Heavy';font-variant-ligatures:normal;font-variant-caps:normal;font-variant-numeric:normal;font-feature-settings:normal;text-align:start;writing-mode:lr-tb;text-anchor:start;fill:#ffffff;stroke-width:0.26458332px"
         id="path9517" />
      <path
         d="m 94.473788,146.47703 -2.561167,3.31258 0.751417,-2.06375 h -2.57175 l -1.386416,3.76767 2.529416,3.24908 2.561167,-3.28083 -0.6985,1.905 h 2.561166 l 1.3335,-3.65125 z m -0.656167,4.92125 h -2.487083 l 0.5715,-1.5875 h 2.497667 z"
         style="font-style:normal;font-variant:normal;font-weight:900;font-stretch:normal;font-size:10.58333302px;font-family:Klute;-inkscape-font-specification:'Klute, Heavy';font-variant-ligatures:normal;font-variant-caps:normal;font-variant-numeric:normal;font-feature-settings:normal;text-align:start;writing-mode:lr-tb;text-anchor:start;fill:#ffffff;stroke-width:0.26458332px"
         id="path9519" />
      <path
         d="m 102.97022,143.65128 -4.32858,4.07458 v 1.83092 h 1.195916 l -1.36525,3.75708 2.084914,1.38642 1.88384,-5.1435 h 1.86266 v -1.83092 h -2.4765 l 2.48709,-2.3495 z"
         style="font-style:normal;font-variant:normal;font-weight:900;font-stretch:normal;font-size:10.58333302px;font-family:Klute;-inkscape-font-specification:'Klute, Heavy';font-variant-ligatures:normal;font-variant-caps:normal;font-variant-numeric:normal;font-feature-settings:normal;text-align:start;writing-mode:lr-tb;text-anchor:start;fill:#ffffff;stroke-width:0.26458332px"
         id="path9521" />
      <path
         d="m 111.14982,146.47703 -2.56117,3.29141 0.74083,-2.04258 h -2.57175 l -1.59808,4.37092 4.953,2.62466 2.39183,-1.5875 -1.97908,-1.05833 3.21733,-2.26483 z m -2.95275,4.36033 0.381,-1.02658 h 1.87325 v 2.2225 z"
         style="font-style:normal;font-variant:normal;font-weight:900;font-stretch:normal;font-size:10.58333302px;font-family:Klute;-inkscape-font-specification:'Klute, Heavy';font-variant-ligatures:normal;font-variant-caps:normal;font-variant-numeric:normal;font-feature-settings:normal;text-align:start;writing-mode:lr-tb;text-anchor:start;fill:#ffffff;stroke-width:0.26458332px"
         id="path9523" />
      <path
         d="m 118.60709,146.69928 -3.16441,2.46591 3.31258,3.16442 -3.33375,-1.19592 -1.25942,1.8415 4.1275,1.50284 3.2385,-2.51884 -3.18558,-3.048 2.94217,1.09009 1.27,-1.88384 z"
         style="font-style:normal;font-variant:normal;font-weight:900;font-stretch:normal;font-size:10.58333302px;font-family:Klute;-inkscape-font-specification:'Klute, Heavy';font-variant-ligatures:normal;font-variant-caps:normal;font-variant-numeric:normal;font-feature-settings:normal;text-align:start;writing-mode:lr-tb;text-anchor:start;fill:#ffffff;stroke-width:0.26458332px"
         id="path9525" />
      <path
         d="m 126.79264,146.69928 -3.16442,2.46591 3.31259,3.16442 -3.33375,-1.19592 -1.25942,1.8415 4.1275,1.50284 3.2385,-2.51884 -3.18558,-3.048 2.94216,1.09009 1.27,-1.88384 z"
         style="font-style:normal;font-variant:normal;font-weight:900;font-stretch:normal;font-size:10.58333302px;font-family:Klute;-inkscape-font-specification:'Klute, Heavy';font-variant-ligatures:normal;font-variant-caps:normal;font-variant-numeric:normal;font-feature-settings:normal;text-align:start;writing-mode:lr-tb;text-anchor:start;fill:#ffffff;stroke-width:0.26458332px"
         id="path9527" />
      <path
         d="m 136.23281,144.90011 h -3.1115 v 1.8415 h 3.1115 z m -1.41816,6.74158 1.41816,-3.91583 h -4.6355 l 1.42875,1.73567 -1.42875,3.90525 h 4.6355 z"
         style="font-style:normal;font-variant:normal;font-weight:900;font-stretch:normal;font-size:10.58333302px;font-family:Klute;-inkscape-font-specification:'Klute, Heavy';font-variant-ligatures:normal;font-variant-caps:normal;font-variant-numeric:normal;font-feature-settings:normal;text-align:start;writing-mode:lr-tb;text-anchor:start;fill:#ffffff;stroke-width:0.26458332px"
         id="path9529" />
      <path
         d="m 143.04963,146.47703 -2.56116,3.31258 0.75141,-2.06375 h -2.57175 l -1.38641,3.76767 2.52941,3.24908 2.56117,-3.28083 -0.6985,1.905 h 2.56117 l 1.3335,-3.65125 z m -0.65616,4.92125 h -2.48709 l 0.5715,-1.5875 h 2.49767 z"
         style="font-style:normal;font-variant:normal;font-weight:900;font-stretch:normal;font-size:10.58333302px;font-family:Klute;-inkscape-font-specification:'Klute, Heavy';font-variant-ligatures:normal;font-variant-caps:normal;font-variant-numeric:normal;font-feature-settings:normal;text-align:start;writing-mode:lr-tb;text-anchor:start;fill:#ffffff;stroke-width:0.26458332px"
         id="path9531" />
      <path
         d="m 153.03832,146.46644 -2.4765,3.19617 0.6985,-1.93675 h -4.6355 l 1.42875,1.72508 -1.42875,3.91584 h 4.6355 l -1.41817,-1.72509 0.66675,-1.83091 h 2.56117 l -1.28059,3.51366 2.06375,1.37584 1.78859,-4.8895 z"
         style="font-style:normal;font-variant:normal;font-weight:900;font-stretch:normal;font-size:10.58333302px;font-family:Klute;-inkscape-font-specification:'Klute, Heavy';font-variant-ligatures:normal;font-variant-caps:normal;font-variant-numeric:normal;font-feature-settings:normal;text-align:start;writing-mode:lr-tb;text-anchor:start;fill:#ffffff;stroke-width:0.26458332px"
         id="path9533" />
      <path
         d="m 163.9198,151.64169 1.42875,-3.91583 h -2.58233 l -0.73025,2.01083 -2.54,-3.25966 -2.59292,3.33375 1.61925,5.00591 2.19075,-1.44991 h 4.6355 z m -3.20675,1.72509 -1.143,-3.556 h 2.43417 z"
         style="font-style:normal;font-variant:normal;font-weight:900;font-stretch:normal;font-size:10.58333302px;font-family:Klute;-inkscape-font-specification:'Klute, Heavy';font-variant-ligatures:normal;font-variant-caps:normal;font-variant-numeric:normal;font-feature-settings:normal;text-align:start;writing-mode:lr-tb;text-anchor:start;fill:#ffffff;stroke-width:0.26458332px"
         id="path9535" />
      <path
         d="m 169.78264,143.52428 -3.58775,9.8425 h 4.64608 l -1.43933,-1.73567 2.45533,-6.72042 z"
         style="font-style:normal;font-variant:normal;font-weight:900;font-stretch:normal;font-size:10.58333302px;font-family:Klute;-inkscape-font-specification:'Klute, Heavy';font-variant-ligatures:normal;font-variant-caps:normal;font-variant-numeric:normal;font-feature-settings:normal;text-align:start;writing-mode:lr-tb;text-anchor:start;fill:#ffffff;stroke-width:0.26458332px"
         id="path9537" />
    </g>
  </g>
</svg>
