<?xml version="1.0" encoding="UTF-8" standalone="no"?>
<svg
   width="512"
   height="512"
   viewBox="0 0 512 512"
   version="1.1"
   id="svg1"
   sodipodi:docname="favicon-source.svg"
   inkscape:version="1.4.2 (ebf0e940d0, 2025-05-08)"
   xmlns:inkscape="http://www.inkscape.org/namespaces/inkscape"
   xmlns:sodipodi="http://sodipodi.sourceforge.net/DTD/sodipodi-0.dtd"
   xmlns="http://www.w3.org/2000/svg"
   xmlns:svg="http://www.w3.org/2000/svg">
  <defs
     id="defs1" />
  <sodipodi:namedview
     id="namedview1"
     pagecolor="#ffffff"
     bordercolor="#000000"
     borderopacity="0.25"
     inkscape:showpageshadow="2"
     inkscape:pageopacity="0.0"
     inkscape:pagecheckerboard="0"
     inkscape:deskcolor="#d1d1d1"
     inkscape:zoom="1.2128906"
     inkscape:cx="256"
     inkscape:cy="256"
     inkscape:window-width="1536"
     inkscape:window-height="832"
     inkscape:window-x="0"
     inkscape:window-y="0"
     inkscape:window-maximized="1"
     inkscape:current-layer="svg1" />
  <rect
     width="512"
     height="512"
     fill="#FAEBD7"
     id="rect1" />
  <path
     d="m 253.20341,263.79744 c -5.12713,7.40586 -6.26649,9.68458 -11.9633,18.2298 -20.50852,28.48405 -55.25906,38.16863 -45.0048,-2.84841 l 1.70904,-5.12713 c 0,-0.56968 0,-1.13936 0.56968,-1.70904 v 0 l 3.98777,-14.81171 c 11.9633,-43.86544 23.9266,-87.73088 36.45959,-131.59631 0,0 0,0 0,-0.56969 h -8.54522 c -3.98777,0 -16.52075,23.35693 -17.66011,26.77501 -7.40585,27.91437 -11.9633,58.67715 -25.63565,84.31279 -11.9633,21.64788 -47.8532,73.48886 -83.74311,64.37396 -16.520748,-3.98777 -11.393619,-19.36915 -8.545214,-30.76277 13.102664,-48.42289 28.484054,-95.70642 42.726074,-143.55962 l 1.13937,-2.84841 h -0.56969 v 0 0 c -15.38138,1.13936 -66.652676,-1.13936 -80.894702,0 l 0.569681,5.69681 c 14.242026,13.67235 50.131931,14.24203 51.271291,25.63565 0,4.55745 -0.56968,9.68458 -2.27872,14.24202 l -3.41809,10.82394 c 0,0.56968 0,1.13936 0,1.70905 -5.127128,15.95106 -9.684576,31.90213 -14.811705,48.42288 l -18.229793,61.52555 c -5.127129,18.79948 -10.254259,42.1564 18.799474,43.29576 43.865444,-2.27872 74.058534,-43.86544 95.136734,-80.32502 0,0.56968 0,1.70904 0,2.27872 -6.83617,21.0782 -30.1931,76.33726 9.11489,76.33726 38.73831,0.56968 45.57449,-35.32022 66.65269,-69.50109 z M 458.85759,139.60698 c -10.25426,-21.64788 -38.16863,-22.21756 -56.9681,-9.68458 -21.64788,13.67235 -37.59895,36.45959 -50.70161,60.38619 5.12713,-20.50852 16.52075,-59.24683 18.22979,-66.083 0,-0.56968 0,-0.56968 0,-0.56968 v 0 -0.56968 c -14.24203,1.70904 -66.65268,-1.13936 -80.89471,0.56968 l 0.56968,5.69681 c 14.24203,13.67235 50.70162,13.67235 51.84098,25.06597 1.13936,2.8484 -1.70905,11.9633 -3.41809,19.36915 -0.56968,0 -0.56968,0.56968 -0.56968,0.56968 0,1.13936 -0.56968,1.70905 -0.56968,2.27873 -0.56968,2.27872 -1.13936,3.98776 -1.13936,4.55744 v 0 l -20.50852,74.62822 c -9.68458,35.32022 -19.93884,77.47662 -29.62341,113.36652 -6.26649,22.78725 -49.56225,22.78725 -63.80428,36.45959 l -0.56968,5.69681 c 10.82394,1.13936 38.16863,-1.13936 56.9681,-1.70904 1.13937,0 2.27873,0 3.41809,0 h 12.53298 l 13.10267,-51.84098 c 2.8484,-9.68457 5.12712,-27.34469 7.97553,-36.45958 1.70904,2.8484 3.41809,5.12713 5.69681,7.40585 8.54522,6.26649 21.0782,6.83617 31.90214,6.26649 23.35692,-1.70904 42.15639,-14.8117 56.39842,-30.76277 26.20533,-29.05374 43.86544,-64.37396 51.27129,-102.54259 3.41809,-19.36915 7.40586,-43.29576 -1.13936,-62.09523 z m -25.06596,86.02184 c -2.84841,15.95106 -6.2665,35.32022 -15.38139,48.99256 -11.39362,17.66012 -34.75055,26.20533 -56.39842,27.34469 -35.32023,-2.27872 -33.61119,-28.48405 -26.77501,-53.55001 3.98776,-14.24203 9.11489,-27.91437 15.95107,-41.01704 10.82394,-19.93883 26.775,-50.13193 55.25906,-51.84097 39.87767,-2.84841 31.33245,48.42289 27.34469,70.07077 z"
     id="text1"
     style="font-style:italic;font-size:569.681px;font-family:'The Directors';text-anchor:middle;stroke-width:2.03458"
     aria-label="up" />
</svg>
